<?xml version="1.0" standalone="no"?>
<!DOCTYPE svg PUBLIC "-//W3C//DTD SVG 20010904//EN"
 "http://www.w3.org/TR/2001/REC-SVG-20010904/DTD/svg10.dtd">
<svg version="1.0" xmlns="http://www.w3.org/2000/svg"
 width="853.000000pt" height="853.000000pt" viewBox="0 0 853.000000 853.000000"
 preserveAspectRatio="xMidYMid meet">
<metadata>
Created by potrace 1.14, written by Peter Selinger 2001-2017
</metadata>
<g transform="translate(0.000000,853.000000) scale(0.100000,-0.100000)"
fill="#000000" stroke="none">
<path d="M7995 6799 c-99 -39 -198 -77 -220 -85 -22 -9 -80 -29 -130 -46 -49
-16 -99 -34 -110 -38 -44 -20 -201 -72 -220 -74 -11 0 -22 -3 -25 -7 -7 -7
-82 -33 -155 -54 -33 -9 -69 -21 -80 -25 -11 -4 -67 -22 -125 -40 -58 -18
-114 -36 -125 -40 -32 -14 -221 -79 -340 -117 -60 -19 -121 -41 -135 -48 -14
-7 -41 -18 -60 -23 -19 -6 -57 -19 -85 -30 -27 -11 -95 -36 -150 -56 -55 -21
-109 -41 -120 -46 -49 -21 -130 -52 -265 -100 -158 -56 -396 -168 -480 -226
l-53 -36 -116 60 c-268 138 -502 193 -801 187 -91 -2 -176 -5 -190 -8 -14 -3
-41 -8 -60 -11 -67 -10 -176 -38 -264 -68 -92 -31 -292 -127 -335 -160 -23
-18 -25 -17 -60 4 -20 11 -41 26 -46 32 -9 10 -98 56 -244 125 -36 17 -73 31
-83 31 -10 0 -18 4 -18 8 0 5 -19 14 -42 21 -50 15 -254 87 -283 101 -31 14
-283 111 -297 114 -7 2 -26 8 -41 14 -16 7 -35 12 -43 12 -9 0 -12 5 -8 12 4
6 3 8 -4 4 -9 -5 -62 11 -137 43 -23 10 -173 60 -195 65 -24 6 -253 85 -275
95 -11 5 -38 15 -60 22 -22 6 -44 14 -50 18 -5 3 -14 6 -20 6 -36 3 -359 107
-363 117 -2 4 -10 8 -18 8 -15 0 -356 117 -464 159 -30 12 -84 33 -120 46 -36
13 -90 33 -120 46 -61 24 -150 37 -150 21 0 -15 34 -72 43 -72 4 0 7 -13 7
-30 0 -16 4 -30 8 -30 4 0 25 -32 46 -71 22 -40 59 -97 84 -128 58 -71 172
-181 188 -181 7 0 14 -4 16 -9 2 -4 39 -32 83 -61 44 -29 91 -60 105 -70 14
-9 35 -20 48 -24 13 -4 22 -15 22 -27 0 -26 -29 -27 -268 -15 -73 3 -136 7
-140 7 -4 1 -23 1 -43 0 -30 -1 -38 -5 -43 -26 -10 -38 18 -90 66 -126 69 -51
195 -105 298 -128 118 -26 356 -61 416 -61 36 0 44 -3 44 -18 0 -13 -12 -21
-47 -29 -27 -6 -100 -25 -163 -43 -63 -18 -125 -34 -137 -35 -12 -2 -37 -8
-55 -13 -18 -6 -55 -13 -82 -17 -70 -9 -76 -13 -76 -49 0 -65 60 -109 202
-147 85 -23 108 -41 69 -54 -15 -5 -17 -12 -11 -45 23 -124 249 -178 519 -124
28 6 32 4 30 -11 -4 -17 -78 -65 -102 -65 -15 0 -67 -47 -67 -61 0 -46 69
-100 145 -114 47 -8 65 -21 65 -46 0 -25 118 -79 188 -86 51 -6 63 -18 41 -40
-19 -19 36 -79 99 -109 50 -24 64 -26 129 -21 75 6 82 2 63 -34 -14 -26 32
-92 75 -107 112 -39 153 -35 183 18 20 35 42 38 60 10 7 -11 17 -20 22 -20 17
0 50 -39 50 -58 0 -10 22 -42 50 -72 27 -30 50 -58 50 -62 0 -4 6 -8 13 -8 6
0 24 -10 39 -23 25 -20 28 -30 33 -112 3 -49 8 -99 10 -110 3 -11 7 -36 10
-55 21 -145 65 -279 142 -439 112 -232 247 -401 473 -592 14 -11 38 -28 53
-37 20 -12 27 -23 24 -37 -9 -39 -49 -171 -79 -265 -23 -68 -32 -117 -33 -170
-1 -58 -8 -88 -28 -132 -15 -32 -30 -58 -35 -58 -12 0 -32 -108 -32 -171 0
-74 8 -99 32 -99 16 0 19 -5 16 -25 -4 -19 2 -30 28 -50 18 -14 35 -25 39 -25
7 0 54 -49 64 -69 6 -9 25 -13 60 -13 49 2 51 0 51 -24 0 -26 0 -26 26 -9 29
18 87 14 137 -11 15 -8 27 -10 27 -5 0 5 26 12 58 16 70 8 169 42 176 61 3 8
19 14 36 14 23 0 30 -4 30 -20 0 -11 5 -20 10 -20 6 0 10 -17 10 -39 0 -35 2
-38 28 -38 15 0 51 -5 80 -10 34 -7 52 -7 52 0 0 6 16 7 43 2 117 -21 142 -23
162 -10 11 7 35 16 52 19 18 4 46 23 62 42 17 19 35 34 40 34 5 0 20 26 33 58
22 55 23 66 20 277 -2 159 -9 254 -23 344 -11 68 -19 125 -17 127 3 3 21 6
108 20 212 35 435 124 630 253 30 20 57 38 60 41 3 3 25 21 50 40 133 103 291
279 379 422 115 189 204 426 226 599 4 30 9 57 11 60 2 3 6 53 9 110 7 123 9
129 33 129 10 0 25 12 34 28 9 15 35 47 58 71 22 24 43 54 46 67 3 13 21 33
39 44 18 11 36 27 39 35 8 22 19 19 62 -21 36 -34 41 -36 87 -30 102 12 175
73 168 140 -3 27 -1 28 26 21 40 -12 81 -8 138 13 65 23 77 31 103 69 15 21
21 40 17 56 -6 23 -3 24 45 30 77 9 179 61 191 97 8 21 19 30 42 35 18 3 57
16 88 27 46 18 58 28 68 53 6 18 9 39 5 48 -3 9 -41 34 -85 57 -43 22 -79 48
-79 56 0 16 4 17 90 4 122 -18 253 -14 325 10 85 28 135 74 135 123 0 25 -6
40 -21 51 -29 20 -18 32 39 40 98 13 207 64 231 109 7 13 11 37 9 53 -3 28 -5
29 -113 50 -132 25 -276 62 -291 75 -6 5 -13 7 -15 5 -2 -3 -36 4 -74 14 -39
11 -73 20 -77 20 -5 0 -8 6 -8 13 0 10 33 17 115 25 146 16 384 56 455 77 53
17 180 83 211 111 8 8 21 14 27 14 7 0 11 3 10 8 -1 4 6 24 15 45 19 43 11 71
-22 82 -10 3 -52 2 -92 -2 -41 -4 -139 -7 -219 -8 -130 0 -145 2 -148 18 -2 9
1 17 7 17 10 0 87 46 101 60 3 3 51 36 108 74 56 37 120 86 141 107 62 62 146
170 176 224 15 28 31 54 36 60 5 5 9 24 9 42 0 21 6 36 15 39 8 4 15 12 15 20
0 8 7 14 15 14 8 0 14 3 13 8 -1 4 3 17 10 30 12 21 11 22 -25 21 -22 0 -116
-31 -218 -70z m-3555 -1083 c38 -9 73 -16 95 -20 48 -9 144 -37 193 -56 62
-24 202 -89 202 -94 0 -18 -134 -129 -144 -119 -3 3 -6 1 -6 -5 0 -9 -146
-120 -198 -149 -44 -26 -74 -16 -132 41 -30 30 -66 57 -79 61 -21 5 -80 42
-91 57 -3 3 -30 16 -60 28 -237 95 -509 141 -613 105 -75 -25 -67 -11 15 28
130 61 273 104 414 123 27 3 51 8 53 9 5 6 323 -3 351 -9z m1024 -1301 c3 -9
9 -65 12 -124 6 -97 9 -108 25 -104 13 4 18 -2 21 -24 3 -26 7 -28 51 -31 45
-3 47 -2 47 22 0 17 5 26 16 26 14 0 16 -9 11 -57 -40 -397 -287 -792 -640
-1022 -71 -46 -236 -131 -262 -135 -5 -1 -14 -4 -20 -8 -14 -8 -189 -56 -247
-67 -47 -8 -48 -8 -48 18 0 14 7 60 16 101 12 54 16 115 15 217 -3 158 -6 149
78 268 71 102 80 116 87 138 4 9 16 17 28 17 17 0 26 12 45 63 12 34 27 70 32
79 5 10 9 29 9 43 0 18 5 25 19 25 11 0 23 5 26 10 10 16 45 12 45 -6 0 -12 5
-14 18 -9 9 4 41 11 71 16 30 4 67 17 82 28 16 12 39 21 51 21 24 0 85 37 122
74 15 15 20 32 19 63 -1 36 2 43 18 43 10 0 19 -5 19 -11 0 -20 18 1 23 28 19
96 30 123 59 145 60 46 108 102 114 135 6 34 28 44 38 18z m-2439 -46 c11 -38
94 -129 118 -129 17 0 44 -67 54 -135 3 -27 8 -44 11 -37 2 6 15 12 29 12 25
0 25 -1 19 -50 -6 -44 -5 -50 11 -50 10 0 23 -10 28 -22 7 -16 29 -29 73 -43
59 -19 62 -21 62 -52 0 -18 5 -65 11 -105 9 -64 8 -83 -10 -153 -27 -108 -44
-257 -38 -330 6 -69 0 -115 -17 -115 -13 0 -119 91 -183 158 -116 121 -223
287 -289 450 -47 116 -95 312 -93 376 0 20 1 20 9 -1 8 -19 17 -23 54 -23 43
0 44 1 42 32 -1 23 4 33 17 36 11 2 17 -3 18 -15 3 -40 28 116 29 175 0 55 2
63 17 60 10 -2 22 -19 28 -39z"/>
</g>
</svg>
